<?xml version="1.0" encoding="UTF-8" standalone="yes"?>
<!-- Created with sK1/UniConvertor (http://sk1project.org/) -->
<svg xmlns="http://www.w3.org/2000/svg" xmlns:xlink="http://www.w3.org/1999/xlink"
  width="483.2pt" height="483.2pt" viewBox="0 0 483.2 483.2"
  fill-rule="evenodd">
<g>
<path style="stroke:none; fill:#ffffff" d="M 0 0L 0 483.2L 483.2 483.2L 483.2 0L 0 0z"/>
<path style="stroke:none; fill:#030303" d="M 123.2 122.4C 112.921 127.521 102.539 139.599 100.8 151.2L 100 151.2L 100 150.4C 99.5432 147.834 98.5824 145.609 97.6 143.2L 96.8 143.2L 96.8 144C 96.8168 149.943 98.3512 155.667 98.4 161.6L 97.6 161.6C 95.1672 160.88 92.9352 160.806 90.4 160.8L 90.4 161.6C 92.092 162.858 93.176 163.482 95.2 164L 95.2 164.8L 95.2 165.6C 88.8216 168.255 82.7448 171.694 76.8 175.2L 76.8 176L 76.8 176.8L 77.6 176.8C 83.984 174.988 90.316 172.555 96.8 171.2L 96.8 177.6L 97.6 177.6L 98.4 177.6C 99.3464 175.738 100.178 173.991 100.8 172L 101.6 172L 102.4 172C 104.673 177.46 107.419 182.893 110.4 188L 111.2 188L 111.2 187.2C 111.085 181.642 109.116 176.593 108 171.2L 108.8 171.2L 109.6 171.2C 117.853 181.742 134.926 183.374 147.2 185.137C 150.982 185.679 157.22 185.045 160.465 187.222C 165.494 190.594 167.708 204.763 168.734 210.4C 171.793 227.211 172.603 241.467 169.229 258.4C 167.858 265.277 163.815 271.352 163.2 278.4L 164 278.4C 171.696 275.859 175.22 260.762 176.123 253.6C 179.206 229.154 175.819 209.054 166.4 186.4C 199.953 186.4 235.773 176.317 262.4 155.2L 263.2 155.2L 263.2 156L 263.2 156.8C 258.018 161.019 254.298 167.467 250.298 172.8C 239.52 187.171 228.954 202.11 228.8 220.8L 229.6 220.8L 230.4 220.8C 232.828 204.591 245.471 189.961 255.36 177.6C 265.281 165.198 273.468 151.858 282.888 139.2C 291.348 127.83 301.401 118.871 307.311 105.6C 314.998 88.3408 315.052 63.6806 289.6 64.8377C 285.458 65.0259 282.182 67.4237 278.4 68.8C 276.393 64.4955 272.654 61.2827 268.8 58.5673C 244.482 41.4361 224.386 61.8694 204 73.9161C 196.15 78.5546 194.49 74.5759 187.215 71.997C 185.526 71.3982 183.929 71.8168 183.526 73.7191C 180.745 86.8872 198.614 88.0592 206.4 84.5496C 220.273 78.2954 230.86 64.5858 246.4 61.9747C 269.298 58.1273 284.547 92.0928 282.169 110.4C 280.838 120.637 277.572 133.111 271.49 141.6C 258.104 160.283 230.513 170.274 209.6 177.064C 199.288 180.413 188.414 181.6 177.6 181.6C 174.038 181.6 169.032 182.486 165.684 181.118C 160.447 178.977 156.612 167.87 153.751 163.2C 143.458 146.398 127.893 128.407 123.491 108.8C 119.891 92.7632 132.431 75.0866 150.4 80.6024C 163.428 84.6016 171.753 97.3296 184.8 101.525C 190.58 103.383 211.994 101.936 209.694 91.4576C 209.157 89.0088 205.526 90.1528 204 90.632C 197.106 92.7968 190.679 94.056 184 90.368C 173.775 84.7216 164.715 75.937 152.8 73.863C 137.068 71.1247 118.718 78.1873 116.937 96C 116.02 105.163 119.966 114.064 123.2 122.4z"/>
<path style="stroke:none; fill:#ffffff" d="M 282.4 72.8L 282.4 73.6L 282.4 74.4C 294.994 86.8616 292.22 106.927 289.6 122.4C 300.112 112.03 318.033 74.5371 292 72.0834C 288.757 71.7776 285.578 72.2099 282.4 72.8M 125.6 127.2C 115.933 136.867 108 144.176 108 158.4L 108.8 158.4L 109.6 158.4C 115.138 155.481 121.355 153.467 127.2 151.2L 128 152L 128 152.8L 128 153.6C 122.381 155.658 117.154 159.361 112 162.4L 112 163.2L 112 164C 123.558 174.958 142.777 180 158.4 180L 158.4 179.2L 158.4 178.4C 148.736 161.842 139.493 140.661 125.6 127.2M 100 159.2C 99.4792 161.147 99.072 161.826 97.6 163.2L 97.6 164L 99.2 164L 99.2 165.6C 96.6984 166.768 94.356 168.158 92 169.6L 92 170.4L 92.8 170.4L 93.6 170.4C 97.38 168.657 100.482 169.042 104 171.2L 104.8 171.2L 104.8 170.4L 104.8 166.4L 105.6 166.4L 108.8 167.2L 109.6 167.2L 109.6 166.4C 107.99 165.133 106.832 164.026 105.6 162.4L 107.2 162.4L 107.2 161.6L 105.6 160L 104.8 160L 102.4 162.4L 101.6 162.4L 101.6 159.2L 100 159.2z"/>
<path style="stroke:none; fill:#030303" d="M 314.4 229.6L 315.2 229.6L 316 229.6C 317.862 226.446 319.557 224.738 323.2 224L 323.2 224.8C 318.5 230.414 315.902 235.695 309.6 240L 308.8 240L 308.8 239.2C 311.983 230.7 307.446 219.444 298.518 228.937C 294.389 233.327 294.096 239.972 289.463 244.764C 283.72 250.706 282.43 245.602 284.153 240.002L 285.6 234.4L 284.8 234.4L 283.2 234.4C 279.441 238.522 275.811 243.335 274.4 248.8L 273.6 248.8L 273.6 248C 274.431 243.504 274.577 239.262 268.8 240.8L 268 240.8L 268 240L 268.8 236.8L 268 236.8L 266.4 236.8C 260.738 242.118 258.602 253.925 249.6 255.606C 245.664 256.342 241.772 251.806 242.446 248C 243.188 243.808 247.462 240.474 251.2 239.2L 251.2 241.6L 252 241.6L 252.8 241.6C 253.992 239.376 254.329 237.722 254.4 235.2C 248.046 235.354 244.04 239.038 241.6 244.8L 240.8 244.8L 240.8 244L 241.6 240L 241.6 239.2L 240.8 239.2C 232.473 242.654 232.325 255.273 223.2 260L 223.2 259.2C 225.061 252.166 223.785 250.218 220.8 244L 220 244L 218.4 244C 211.534 250.034 209.866 253.535 207.734 262.4C 207.111 264.991 205.446 269.349 208.982 270.682C 213.742 272.477 224.142 262.726 228 260L 228.8 260L 228.8 265.6L 229.6 265.6C 234.396 264.1 236.112 258.188 236.8 253.6L 237.6 253.6L 238.4 253.6C 240.758 265.274 251.26 258.886 256.8 253.6L 257.6 253.6L 257.6 254.4C 256.596 255.801 256.309 256.686 256 258.4L 256.8 258.4L 258.4 258.4C 262.019 253.657 264.756 248.431 268.8 244L 269.6 244C 269.41 248.159 267.675 251.9 268.8 256L 269.6 256L 270.4 256C 273.098 252.826 275.363 249.524 276.8 245.6L 277.6 245.6L 278.4 245.6C 278.534 256.949 287.866 250.652 292 244.8L 292.8 244.8L 292.8 245.6C 293.69 257.261 308.222 243.876 312.8 240.8L 313.6 240.8L 313.6 241.6L 313.6 242.4C 306.679 250.32 288.784 253.92 288 265.6L 288.8 265.6L 289.6 265.6L 304 256.8L 304.8 256.8L 304.8 257.6C 300.423 261.129 297.276 266.374 292 268.785C 288.841 270.228 284.89 268.86 285.466 264.801L 287.2 259.2L 286.4 259.2L 285.6 259.2C 278.619 269.93 286.533 275.359 296.8 269.76C 303.805 265.939 306.485 258.91 312.147 253.915C 316.891 249.73 325.868 247.938 332 247.24C 335.154 246.881 343.063 244.619 344.555 248.918C 345.649 252.07 341.21 255.615 339.197 257.36C 334.116 261.762 316.539 266.958 317.6 274.4C 323.953 272.944 342.847 268.272 342.05 280.8C 341.874 283.573 340.235 286.275 339.2 288.8L 338.4 288.8C 329.752 281.018 317.994 284.706 308 286.4L 308 285.6L 308 284.8C 311.639 280.407 313.513 274.546 316.342 269.6C 319.935 263.318 325.575 256.684 327.2 249.6C 317.737 250.118 314.655 260.694 311.002 268C 308.146 273.714 306.058 282.094 301.841 286.868C 298.193 290.998 292.035 292.554 288.139 296.812C 284.178 301.139 282.958 308.343 276.8 309.6L 276.8 308.8L 276.8 308C 279.822 304.002 281.943 297.055 281.502 292.001C 281.118 287.626 277.514 285.345 273.612 287.794C 265.448 292.919 266.021 305.175 260.992 312.8C 259.4 315.214 255.087 322.337 251.455 321.231C 244.202 319.022 261.352 300.892 254.946 299.002C 252.163 298.18 242.386 311.137 240 313.6L 239.2 313.6L 239.2 312.8L 242.4 302.4L 241.6 301.6C 233.497 304.415 231.402 319.594 229.6 327.2L 228.8 327.2L 228.8 326.4C 229.792 322.214 232.188 317.957 230.485 313.612C 226.965 304.631 208.75 305.783 201.6 308.8L 200.8 308.8L 200.8 308L 200.8 307.2C 205.148 302.006 206.926 294.727 211.512 289.77C 217.686 283.098 237.045 277.283 240 289.6L 240.8 289.6L 241.6 289.6L 242.4 289.6C 246.386 272.808 224.842 276.458 216 281.6L 215.2 281.6L 215.2 280.8C 216.508 280.364 216.364 280.508 216.8 279.2L 216.8 278.4L 216 278.4C 210.287 279.435 208.478 283.846 203.968 286.828C 194.35 293.19 181.41 301.349 169.6 301.6L 169.6 300.8L 169.6 300C 176.392 295.234 182.146 289.993 190.4 287.676C 194.482 286.53 199.922 287.459 200.8 282.4C 189.618 282.402 178.888 286.491 170.432 293.952C 167.695 296.366 162.205 302.078 164.826 306.146C 167.014 309.542 173.016 307.622 176 306.663C 185.134 303.73 195.11 299.135 202.4 292.8L 203.2 292.8L 203.2 293.6L 203.2 294.4C 195.19 302.326 192.55 315.79 187.434 325.588C 184.874 330.489 178.994 332.436 175.626 336.803C 172.569 340.766 172.726 345.425 170.4 349.6L 169.6 349.6L 169.6 348.8C 172.024 339.53 174.246 330.214 176 320.8C 166.394 321.327 160.136 341.028 156 348.8L 155.2 348.8L 155.2 348C 155.506 342.106 159.093 337.5 160.8 332L 160 331.2C 151.901 333.474 148.863 343.626 148.8 351.2C 146.778 351.242 145.134 351.422 143.2 352L 142.4 352L 142.4 351.2C 144.765 345.496 140.186 343.259 135.2 343.2L 135.2 342.4L 135.2 341.6C 140.706 338.743 144.307 333.494 148.197 328.8C 150.51 326.007 152.714 323.168 154.499 320C 159.282 311.512 159.556 299.35 146.4 302.135C 134.43 304.669 123.028 312.234 113.6 319.733C 110.854 321.916 99.0104 330.995 102.445 335.47C 104.61 338.29 112.099 328.669 113.6 327.272C 121.302 320.1 129.761 314.042 139.2 309.405C 142.284 307.89 146.806 305.279 150.214 307.346C 155.25 310.4 149.061 319.196 146.913 322.4C 141.298 330.774 133.978 338.818 126.4 345.452C 121.883 349.406 116.085 350.997 115.2 357.6L 116 357.6C 120.108 356.291 132.334 345.318 136.282 349.314C 140.553 353.638 124.849 359.039 122.4 360.565C 108.306 369.347 87.0008 387.76 87.3184 406.399C 87.4408 413.595 94.9208 411.798 99.2 409.452C 108.078 404.584 117.786 395.439 122.4 386.4L 123.2 386.4L 123.2 387.2L 123.2 388C 114.218 399.239 124.957 409.368 136.8 403.739C 149.267 397.814 157.3 383.405 162.502 371.2C 164.364 366.834 165.547 357.126 169.21 354.152C 172.008 351.88 176.199 354.81 179.203 355.114C 186.114 355.814 192.077 354.457 198.4 351.773C 208.95 347.295 215.008 339.025 224.228 333.293C 226.971 331.587 229.838 333.622 232.466 330.921C 235.403 327.901 235.154 323.562 237.051 320.074C 238.753 316.947 242.439 315.376 244.8 312.8L 245.6 312.8L 245.6 313.6C 241.022 326.163 251.062 331.816 259.2 320.8L 260 320.8L 260 323.2C 267.313 325.295 275.152 315.888 280.8 312L 281.6 312C 283.716 319.513 293.239 321.264 300 319.28C 314.063 315.153 330.817 308.827 339.2 296L 340 296L 341.6 300L 344 300C 345.928 296.306 343.588 293.994 344.55 290.4C 345.594 286.503 348.262 283.406 348.64 279.2C 349.474 269.932 339.006 268.005 332 268L 332 267.2C 338.216 265.405 357.058 253.652 349.918 245.135C 344.521 238.698 322.735 242.171 316.8 246.4L 316 246.4L 316 245.6L 316 244.8C 317.093 243.494 317.714 242.37 318.4 240.8L 319.2 240.8C 326.113 247.778 339.287 235.151 343.2 229.6L 343.2 228.8L 342.4 228.8L 341.6 228.8L 332.8 236.8L 332 236.8L 332 236L 332 235.2C 335.03 230.765 333.562 224.781 328.8 222.4C 330.162 218.134 332.908 215.159 336 212L 336.8 212L 336.8 214.4L 337.6 214.4L 338.4 214.4L 338.4 210.4C 331.476 210.779 329.625 215.794 324.661 219.55C 319.997 223.078 315.179 222.607 314.4 229.6z"/>
<path style="stroke:none; fill:#ffffff" d="M 326.4 224.8L 323.397 230.402C 315.562 246.048 336.45 235.682 326.4 224.8M 304 228.8L 301.847 232.82C 294.387 247.805 316.275 232.874 304 228.8z"/>
<path style="stroke:none; fill:#030303" d="M 124 296.8L 124.8 296.8L 126.4 296.8C 132.03 293.038 139.905 291.894 146.4 290.067C 157.406 286.972 167.979 283.538 179.2 281.28C 187.558 279.598 199.112 277.746 203.614 269.597C 208.173 261.345 203.576 252.81 198.049 246.412C 196.908 245.091 190.082 237.454 188.141 240.53C 186.601 242.97 191.936 247.206 193.226 248.8C 197.985 254.68 201.918 262.208 195.829 268.661C 181.839 283.486 161.679 280.177 144 284.812C 136.391 286.806 126.905 288.326 124 296.8z"/>
<path style="stroke:none; fill:#ffffff" d="M 297.6 242.4L 297.6 243.2L 297.6 247.2L 298.4 247.2C 299.9 246.762 301.004 246.312 302.4 245.6L 302.4 244.8L 297.6 242.4M 220.8 248.8C 207.921 252.763 219.818 267.982 221.327 253.604C 221.505 251.911 221.176 250.434 220.8 248.8M 236 251.2L 235.2 252L 235.2 253.6L 236 253.6C 236.32 252.28 236.383 252.398 236 251.2M 211.2 262.4L 211.2 267.2L 212 267.2C 213.645 266.81 214.515 266.438 216 265.6L 216 264.8C 214.586 264.036 213.914 263.547 212.8 262.4L 211.2 262.4M 298.4 314.4C 312.837 313.74 327.134 304.486 336 293.6C 329.997 288.803 311.328 286.375 305.359 292.448C 300.701 297.187 298.454 308.02 298.4 314.4M 272.8 292C 272.084 293.634 271.571 295.062 271.2 296.8L 272 296.8C 273.349 296.626 273.853 296.621 275.2 296.8L 276 296.8C 275.79 294.072 275.457 292.879 272.8 292M 299.2 293.6C 292.536 298.151 280.843 311.137 294.4 315.2C 294.405 307.536 297.13 301.397 300 294.4L 299.2 293.6M 275.2 299.2C 272.005 301.942 271.002 304.065 272.8 308L 273.6 308L 274.4 307.2C 275.133 304.429 276.266 301.958 275.2 299.2M 268 308.8C 267.094 312.022 266.47 315.046 266.4 318.4L 267.2 318.4L 268 318.4C 270.399 314.565 271.406 312.314 268 308.8M 192.8 325.6L 192.8 326.4L 193.6 326.4C 203.235 321.735 213.839 322.632 224 324C 226.801 308.903 208.582 308.566 198.712 314.735C 195.432 316.786 193.981 322.134 192.8 325.6M 188 347.2L 188.8 347.2C 190.623 345.496 192.145 344.239 194.4 343.2L 194.4 344C 193.361 346.255 192.104 347.777 190.4 349.6L 190.4 350.4L 191.2 350.4C 201.687 346.852 217.965 339.924 220.8 328C 212.888 327.66 196.891 323.933 191.074 331.422C 187.986 335.398 188.014 342.41 188 347.2M 183.2 334.4C 179.514 339.552 175.041 347.071 182.4 351.2L 183.2 351.2L 183.2 350.4C 181.91 344.979 182.557 340.268 184.8 335.2L 184.8 334.4L 183.2 334.4M 165.6 338.4L 164.8 339.2C 162.794 344.67 158.457 352.22 152.8 354.514C 149.338 355.918 145.007 354.164 141.912 356.594C 137.238 360.262 133.973 369.19 131.2 374.4L 131.2 375.2L 132 375.2C 137.97 369.234 144.254 363.386 151.2 358.564C 154.698 356.135 160.639 354.081 163.21 350.69C 165.067 348.239 166.393 341.248 165.6 338.4M 162.4 356.8L 162.4 356C 150.081 359.9 134.869 373.471 129.006 384.8C 126.863 388.943 122.862 397.122 127.547 401.114C 132.094 404.989 140.161 398.245 143.169 395.188C 153.678 384.506 157.968 370.661 162.4 356.8M 134.4 358.4C 120.106 366.536 107.413 374.358 98.4528 388.8C 96.6568 391.694 90.3536 401.706 94.8824 404.703C 99.0896 407.486 106.379 399.219 108.799 396.799C 119.504 386.096 128.165 372.558 135.2 359.2L 134.4 358.4z"/>
</g>
</svg>